# File created by Blade
# Date/Time:  Tue Jan 27 17:27:44 2015
#---------------------------------------------------------
:version 1.10
:name HOM
:units
  mass 1.0
  length 1.000000
  angle deg
:documentation
     Acclaim Skeleton File
:root
   axis xyz
   order TX TY TZ RX RY RZ
   position 0.000000 0.000000 0.000000
   orientation 0 0 0
:bonedata
   begin
      id 1
      name Spine_dum
      direction 0.000000 1.000000 0.000000
      length 7.539951
      axis 0.0 0.0 0.0 xyz
   end
   begin
      id 2
      name LeftUpLeg_dum
      direction 1.000000 0.000000 0.000000
      length 3.345476
      axis 0.0 0.0 0.0 xyz
   end
   begin
      id 3
      name RightUpLeg_dum
      direction -1.000000 0.000000 0.000000
      length 3.345476
      axis 0.0 0.0 0.0 xyz
   end
   begin
      id 4
      name Spine
      direction 0.000000 1.000000 0.000000
      length 0.000000
      axis 0.0 0.0 0.0 xyz
      dof rx ry rz
   end
   begin
      id 5
      name Spine_dum1
      direction 0.000000 1.000000 0.000000
      length 15.093809
      axis 0.0 0.0 0.0 xyz
   end
   begin
      id 6
      name Spine_dum2
      direction 0.000000 1.000000 0.000000
      length 9.738928
      axis 0.0 0.0 0.0 xyz
   end
   begin
      id 7
      name Spine_dum3
      direction 0.000000 1.000000 0.000000
      length 9.738928
      axis 0.0 0.0 0.0 xyz
   end
   begin
      id 8
      name Head
      direction 0.000000 1.000000 0.000000
      length 4.527550
      axis 0.0 0.0 0.0 xyz
      dof rx ry rz
   end
   begin
      id 9
      name LeftShoulder
      direction 1.000000 0.000000 0.000000
      length 7.084015
      axis 0.0 0.0 -90.0 xyz
      dof rx ry rz
   end
   begin
      id 10
      name LeftArm
      direction 1.000000 0.000000 0.000000
      length 10.259319
      axis 0.0 0.0 -90.0 xyz
      dof rx ry rz
   end
   begin
      id 11
      name LeftForeArm
      direction 1.000000 0.000000 0.000000
      length 9.896984
      axis 0.0 0.0 -90.0 xyz
      dof ry rz rx
   end
   begin
      id 12
      name LeftHand
      direction 0.000000 0.000000 0.000000
      length 0.000000
      axis 0.0 0.0 -90.0 xyz
      dof rx ry rz
   end
   begin
      id 13
      name LeftHand_dum1
      direction 0.000000 0.000000 0.000000
      length 0.000000
      axis 0.0 0.0 -90.0 xyz
   end
   begin
      id 14
      name LeftHand_dum2
      direction 1.000000 0.000000 0.000000
      length 3.937000
      axis 0.0 0.0 -90.0 xyz
   end
   begin
      id 15
      name LeftHandThumb1
      direction 0.000000 0.000000 1.000000
      length 3.937000
      axis 0.0 0.0 -90.0 xyz
      dof rx rz ry
   end
   begin
      id 16
      name RightShoulder
      direction -1.000000 0.000000 0.000000
      length 7.084015
      axis 0.0 0.0 90.0 xyz
      dof rx ry rz
   end
   begin
      id 17
      name RightArm
      direction -1.000000 0.000000 0.000000
      length 10.259319
      axis 0.0 0.0 90.0 xyz
      dof rx ry rz
   end
   begin
      id 18
      name RightForeArm
      direction -1.000000 0.000000 0.000000
      length 9.896984
      axis 0.0 0.0 90.0 xyz
      dof ry rz rx
   end
   begin
      id 19
      name RightHand
      direction 0.000000 0.000000 0.000000
      length 0.000000
      axis 0.0 0.0 90.0 xyz
      dof rx ry rz
   end
   begin
      id 20
      name RightHand_dum1
      direction 0.000000 0.000000 0.000000
      length 0.000000
      axis 0.0 0.0 90.0 xyz
   end
   begin
      id 21
      name RightHand_dum2
      direction -1.000000 0.000000 0.000000
      length 3.937000
      axis 0.0 0.0 90.0 xyz
   end
   begin
      id 22
      name RightHandThumb1
      direction 0.000000 0.000000 1.000000
      length 3.937000
      axis 0.0 0.0 90.0 xyz
      dof rx rz ry
   end
   begin
      id 23
      name LeftUpLeg
      direction 0.000000 -1.000000 0.000000
      length 19.114733
      axis 0.0 0.0 0.0 xyz
      dof rx ry rz
   end
   begin
      id 24
      name LeftLeg
      direction 0.000000 -1.000000 0.000000
      length 16.045604
      axis 0.0 0.0 0.0 xyz
      dof rx ry rz
   end
   begin
      id 25
      name LeftFoot
      direction 0.000000 -0.258819 0.965926
      length 5.543155
      axis 15.0 0.0 0.0 xyz
      dof rx ry rz
   end
   begin
      id 26
      name LeftToeBase
      direction 0.000000 0.000000 1.000000
      length 2.952750
      axis 0.0 0.0 0.0 xyz
      dof rx ry rz
   end
   begin
      id 27
      name RightUpLeg
      direction 0.000000 -1.000000 0.000000
      length 19.114733
      axis 0.0 0.0 0.0 xyz
      dof rx ry rz
   end
   begin
      id 28
      name RightLeg
      direction 0.000000 -1.000000 0.000000
      length 16.045604
      axis 0.0 0.0 0.0 xyz
      dof rx ry rz
   end
   begin
      id 29
      name RightFoot
      direction 0.000000 -0.258819 0.965926
      length 5.543155
      axis 15.0 0.0 0.0 xyz
      dof rx ry rz
   end
   begin
      id 30
      name RightToeBase
      direction 0.000000 0.000000 1.000000
      length 2.952750
      axis 0.0 0.0 0.0 xyz
      dof rx ry rz
   end
:hierarchy
   begin
      root Spine_dum LeftUpLeg_dum RightUpLeg_dum
      Spine_dum Spine
      LeftUpLeg_dum LeftUpLeg
      RightUpLeg_dum RightUpLeg
      Spine Spine_dum1 Spine_dum2 Spine_dum3
      Spine_dum1 Head
      Spine_dum2 LeftShoulder
      Spine_dum3 RightShoulder
      LeftShoulder LeftArm
      LeftArm LeftForeArm
      LeftForeArm LeftHand
      LeftHand LeftHand_dum1 LeftHand_dum2
      LeftHand_dum1 LeftHandThumb1
      RightShoulder RightArm
      RightArm RightForeArm
      RightForeArm RightHand
      RightHand RightHand_dum1 RightHand_dum2
      RightHand_dum1 RightHandThumb1
      LeftUpLeg LeftLeg
      LeftLeg LeftFoot
      LeftFoot LeftToeBase
      RightUpLeg RightLeg
      RightLeg RightFoot
      RightFoot RightToeBase
   end

# File created by Blade
# Date/Time:  Tue Jan 27 17:27:32 2015
# Frame Rate: 120.000 fps
#------------------------------------------------------
:FULLY-SPECIFIED
:DEGREES
1191
root 3.586244 36.970064 0.845449 5.295851 23.320601 0.388657
Spine 4.182517 10.504770 -1.990763
Head 2.241978 -3.483718 -2.004382
LeftShoulder -4.476572 -9.966574 7.366171
LeftArm -1.400329 -23.231804 -54.488015
LeftForeArm 7.110328 -0.000000 105.335615
LeftHand -13.924959 -0.000000 33.728445
LeftHandThumb1 -26.253704 0.000000 33.147579
RightShoulder -3.399986 -18.964602 -0.156541
RightArm 17.710713 -21.738456 61.634259
RightForeArm 187.695108 0.000000 24.336758
RightHand -0.123430 -0.000000 3.710901
RightHandThumb1 -24.326973 -0.000000 -32.862282
LeftUpLeg -5.104170 -3.905208 -1.462638
LeftLeg 6.026114 -0.000000 -0.000000
LeftFoot -10.806547 -13.357791 -14.954850
LeftToeBase 15.354843 -0.000000 -0.000000
RightUpLeg -19.564799 -13.093036 -7.492128
RightLeg 52.661350 -0.000000 -0.000000
RightFoot -17.472451 -1.133434 10.180922
RightToeBase -1.130048 -0.000000 0.000000
1192
root 3.543377 36.973553 0.853965 5.429026 22.975308 0.378715
Spine 4.115369 10.546982 -2.094217
Head 2.178613 -3.491484 -1.970556
LeftShoulder -4.507219 -9.952764 7.421602
LeftArm -1.683506 -23.657798 -54.291158
LeftForeArm 6.777464 -0.000000 105.275449
LeftHand -13.725619 -0.000000 33.454074
LeftHandThumb1 -26.253704 0.000000 33.147579
RightShoulder -3.380471 -18.947893 -0.148407
RightArm 17.870854 -21.843773 61.653270
RightForeArm 187.658243 -0.000000 24.448918
RightHand -0.136053 -0.000000 3.751653
RightHandThumb1 -24.326973 -0.000000 -32.862282
LeftUpLeg -5.227898 -3.793408 -1.392629
LeftLeg 6.014894 -0.000000 -0.000000
LeftFoot -10.842864 -13.224171 -15.031473
LeftToeBase 15.335931 -0.000000 -0.000000
RightUpLeg -19.337387 -13.442971 -7.349688
RightLeg 51.645738 -0.000000 -0.000000
RightFoot -17.315848 -0.284286 10.418915
RightToeBase -1.596925 -0.000000 0.000000
1193
root 3.494790 36.976289 0.860430 5.614188 22.684704 0.347861
Spine 3.965534 10.528749 -2.196396
Head 2.164063 -3.441325 -1.872902
LeftShoulder -4.532017 -9.945899 7.472665
LeftArm -1.935787 -24.124488 -54.097251
LeftForeArm 6.523207 -0.000000 105.200483
LeftHand -13.690157 -0.000000 33.178389
LeftHandThumb1 -26.253704 0.000000 33.147579
RightShoulder -3.341465 -18.931291 -0.147337
RightArm 18.003356 -21.975965 61.683307
RightForeArm 187.700777 -0.000000 24.556150
RightHand -0.152784 -0.000000 3.733208
RightHandThumb1 -24.326973 -0.000000 -32.862282
LeftUpLeg -5.436157 -3.715037 -1.283726
LeftLeg 6.033309 -0.000000 -0.000000
LeftFoot -10.886224 -13.138039 -15.143243
LeftToeBase 15.331591 -0.000000 -0.000000
RightUpLeg -19.147891 -13.752863 -7.171917
RightLeg 50.585515 -0.000000 -0.000000
RightFoot -17.111204 0.725086 10.537473
RightToeBase -2.107362 -0.000000 0.000000
1194
root 3.440186 36.978595 0.858488 5.902809 22.230572 0.329241
Spine 3.701170 10.719326 -2.373829
Head 2.148402 -3.441545 -1.768138
LeftShoulder -4.508692 -9.947565 7.569150
LeftArm -2.190886 -24.530918 -53.922869
LeftForeArm 6.515411 -0.000000 105.074064
LeftHand -13.595434 -0.000000 33.267156
LeftHandThumb1 -26.253704 0.000000 33.147579
RightShoulder -3.373847 -18.930366 -0.110576
RightArm 18.165958 -22.132023 61.711727
RightForeArm 187.735103 -0.000000 24.636762
RightHand -0.167520 -0.000000 3.708395
RightHandThumb1 -24.326973 -0.000000 -32.862282
LeftUpLeg -5.758849 -3.373290 -1.196598
LeftLeg 6.074951 -0.000000 -0.000000
LeftFoot -10.897095 -13.167012 -15.248196
LeftToeBase 15.326609 -0.000000 -0.000000
RightUpLeg -19.127499 -13.804747 -6.989640
RightLeg 49.545824 -0.000000 -0.000000
RightFoot -16.750682 1.817109 10.550456
RightToeBase -2.382825 -0.000000 0.000000
